<svg xmlns="http://www.w3.org/2000/svg" xmlns:xlink="http://www.w3.org/1999/xlink">
	<symbol id="arrow_right" viewBox="0 0 26 26">
		 <path d="M16.7,22.7l9-9c0.2-0.2,0.3-0.5,0.3-0.7c0-0.3-0.1-0.5-0.3-0.7l-9-9C16.5,3.1,16.3,3,16,3s-0.5,0.1-0.7,0.3l-1.4,1.4  c-0.4,0.4-0.4,1,0,1.4l4,4c0.3,0.3,0.1,0.9-0.4,0.9H1c-0.6,0-1,0.4-1,1v2c0,0.6,0.4,1,1,1h16.6c0.4,0,0.7,0.5,0.4,0.9l-4,4  c-0.4,0.4-0.4,1,0,1.4l1.4,1.4c0.2,0.2,0.4,0.3,0.7,0.3C16.3,23,16.5,22.9,16.7,22.7z"/>
	</symbol>
	<symbol id="search" viewBox="0 0 18.97 21.063">
	  <path d="M1519.5,154.474a7,7,0,1,1-2.56,9.561A7,7,0,0,1,1519.5,154.474Z" transform="translate(-1514.97 -152.531)"/>
	  <path d="M1531.13,172.161l-3.5-4.795" transform="translate(-1514.97 -152.531)"/>
	</symbol>
	<symbol id="switch_off" viewBox="0 0 60 60">
		<path d="M14,36C8.486,36,4,40.486,4,46s4.486,10,10,10s10-4.486,10-10S19.514,36,14,36z M14,54c-4.411,0-8-3.589-8-8s3.589-8,8-8
		s8,3.589,8,8S18.411,54,14,54z"/>
		<path d="M46,32H14C6.28,32,0,38.28,0,46s6.28,14,14,14h32c7.72,0,14-6.28,14-14S53.72,32,46,32z M46,58H14C7.383,58,2,52.617,2,46
			s5.383-12,12-12h32c6.617,0,12,5.383,12,12S52.617,58,46,58z"/>
	</symbol>
	<symbol id="switch_on" viewBox="0 0 60 60">
		<path d="M14,28h32c7.72,0,14-6.28,14-14S53.72,0,46,0H14C6.28,0,0,6.28,0,14S6.28,28,14,28z M46,4c5.514,0,10,4.486,10,10
		s-4.486,10-10,10s-10-4.486-10-10S40.486,4,46,4z"/>
	</symbol>
	<symbol id="arc" viewBox="0 0 39 35">
		  <path  d="M836,3145h18a20,20,0,0,1,20,20v14" transform="translate(-835.5 -3144.5)"/>
	</symbol>
</svg>